<mxfile host="65bd71144e">
    <diagram name="Page-1" id="2yIi7BUX0MY76aBj8uS4">
        <mxGraphModel dx="2229" dy="1060" grid="1" gridSize="10" guides="1" tooltips="1" connect="1" arrows="1" fold="1" page="1" pageScale="1" pageWidth="850" pageHeight="1100" background="none" math="0" shadow="0">
            <root>
                <mxCell id="0"/>
                <mxCell id="1" parent="0"/>
                <mxCell id="iNH-K4mkTMuiBgrVkIhN-1" value="" style="ellipse;html=1;shape=startState;fillColor=#000000;strokeColor=#ff0000;" parent="1" vertex="1">
                    <mxGeometry x="90" y="190" width="30" height="30" as="geometry"/>
                </mxCell>
                <mxCell id="iNH-K4mkTMuiBgrVkIhN-2" value="" style="edgeStyle=orthogonalEdgeStyle;html=1;verticalAlign=bottom;endArrow=open;endSize=8;strokeColor=#ff0000;rounded=0;" parent="1" source="iNH-K4mkTMuiBgrVkIhN-1" edge="1">
                    <mxGeometry relative="1" as="geometry">
                        <mxPoint x="150" y="205" as="targetPoint"/>
                    </mxGeometry>
                </mxCell>
                <mxCell id="iNH-K4mkTMuiBgrVkIhN-4" value="Choose Package/Folder" style="html=1;whiteSpace=wrap;" parent="1" vertex="1">
                    <mxGeometry x="150" y="180" width="110" height="50" as="geometry"/>
                </mxCell>
                <mxCell id="iNH-K4mkTMuiBgrVkIhN-5" value="" style="endArrow=classic;html=1;rounded=0;exitX=1;exitY=0.5;exitDx=0;exitDy=0;" parent="1" source="iNH-K4mkTMuiBgrVkIhN-4" edge="1">
                    <mxGeometry width="50" height="50" relative="1" as="geometry">
                        <mxPoint x="310" y="270" as="sourcePoint"/>
                        <mxPoint x="340" y="205" as="targetPoint"/>
                    </mxGeometry>
                </mxCell>
                <mxCell id="iNH-K4mkTMuiBgrVkIhN-6" value="Choose Java File" style="html=1;whiteSpace=wrap;" parent="1" vertex="1">
                    <mxGeometry x="340" y="180" width="110" height="50" as="geometry"/>
                </mxCell>
                <mxCell id="iNH-K4mkTMuiBgrVkIhN-8" value="" style="endArrow=classic;html=1;rounded=0;exitX=0.5;exitY=1;exitDx=0;exitDy=0;" parent="1" source="iNH-K4mkTMuiBgrVkIhN-6" edge="1">
                    <mxGeometry width="50" height="50" relative="1" as="geometry">
                        <mxPoint x="390" y="250" as="sourcePoint"/>
                        <mxPoint x="395" y="280" as="targetPoint"/>
                    </mxGeometry>
                </mxCell>
                <mxCell id="iNH-K4mkTMuiBgrVkIhN-10" value="Generate New Diagram" style="html=1;whiteSpace=wrap;" parent="1" vertex="1">
                    <mxGeometry x="340" y="282.5" width="110" height="50" as="geometry"/>
                </mxCell>
                <mxCell id="iNH-K4mkTMuiBgrVkIhN-11" value="" style="endArrow=classic;html=1;rounded=0;exitX=1;exitY=0.5;exitDx=0;exitDy=0;entryX=0;entryY=0.5;entryDx=0;entryDy=0;" parent="1" source="iNH-K4mkTMuiBgrVkIhN-10" target="iNH-K4mkTMuiBgrVkIhN-15" edge="1">
                    <mxGeometry width="50" height="50" relative="1" as="geometry">
                        <mxPoint x="480" y="300" as="sourcePoint"/>
                        <mxPoint x="490" y="305" as="targetPoint"/>
                    </mxGeometry>
                </mxCell>
                <mxCell id="iNH-K4mkTMuiBgrVkIhN-14" value="Edit Generated Diagram" style="html=1;whiteSpace=wrap;" parent="1" vertex="1">
                    <mxGeometry x="520" y="536.87" width="110" height="50" as="geometry"/>
                </mxCell>
                <mxCell id="iNH-K4mkTMuiBgrVkIhN-15" value="" style="rhombus;whiteSpace=wrap;html=1;" parent="1" vertex="1">
                    <mxGeometry x="490" y="270" width="80" height="77.5" as="geometry"/>
                </mxCell>
                <mxCell id="iNH-K4mkTMuiBgrVkIhN-20" value="" style="endArrow=classic;html=1;rounded=0;exitX=0.5;exitY=1;exitDx=0;exitDy=0;" parent="1" source="iNH-K4mkTMuiBgrVkIhN-15" edge="1">
                    <mxGeometry relative="1" as="geometry">
                        <mxPoint x="530" y="250" as="sourcePoint"/>
                        <mxPoint x="530" y="420" as="targetPoint"/>
                    </mxGeometry>
                </mxCell>
                <mxCell id="iNH-K4mkTMuiBgrVkIhN-21" value="Select Specific Code" style="edgeLabel;resizable=0;html=1;align=center;verticalAlign=middle;" parent="iNH-K4mkTMuiBgrVkIhN-20" connectable="0" vertex="1">
                    <mxGeometry relative="1" as="geometry"/>
                </mxCell>
                <mxCell id="iNH-K4mkTMuiBgrVkIhN-24" value="" style="endArrow=classic;html=1;rounded=0;exitX=1;exitY=0.5;exitDx=0;exitDy=0;" parent="1" source="iNH-K4mkTMuiBgrVkIhN-15" edge="1">
                    <mxGeometry relative="1" as="geometry">
                        <mxPoint x="554.71" y="332.5" as="sourcePoint"/>
                        <mxPoint x="680" y="410" as="targetPoint"/>
                        <Array as="points">
                            <mxPoint x="680" y="309"/>
                        </Array>
                    </mxGeometry>
                </mxCell>
                <mxCell id="iNH-K4mkTMuiBgrVkIhN-25" value="Add All Code" style="edgeLabel;resizable=0;html=1;align=center;verticalAlign=middle;" parent="iNH-K4mkTMuiBgrVkIhN-24" connectable="0" vertex="1">
                    <mxGeometry relative="1" as="geometry">
                        <mxPoint x="4" y="31" as="offset"/>
                    </mxGeometry>
                </mxCell>
                <mxCell id="iNH-K4mkTMuiBgrVkIhN-27" value="Choosing specific code (getters, etc)" style="html=1;whiteSpace=wrap;" parent="1" vertex="1">
                    <mxGeometry x="500" y="423.75" width="110" height="50" as="geometry"/>
                </mxCell>
                <mxCell id="iNH-K4mkTMuiBgrVkIhN-29" value="View Generated Diagram" style="html=1;whiteSpace=wrap;" parent="1" vertex="1">
                    <mxGeometry x="670" y="423.75" width="110" height="50" as="geometry"/>
                </mxCell>
                <mxCell id="iNH-K4mkTMuiBgrVkIhN-30" value="" style="endArrow=classic;html=1;rounded=0;exitX=1;exitY=0.5;exitDx=0;exitDy=0;entryX=0;entryY=0.5;entryDx=0;entryDy=0;" parent="1" source="iNH-K4mkTMuiBgrVkIhN-27" target="iNH-K4mkTMuiBgrVkIhN-29" edge="1">
                    <mxGeometry width="50" height="50" relative="1" as="geometry">
                        <mxPoint x="615" y="460" as="sourcePoint"/>
                        <mxPoint x="655" y="461" as="targetPoint"/>
                    </mxGeometry>
                </mxCell>
                <mxCell id="iNH-K4mkTMuiBgrVkIhN-32" value="" style="rhombus;whiteSpace=wrap;html=1;" parent="1" vertex="1">
                    <mxGeometry x="400" y="530.01" width="60" height="63.75" as="geometry"/>
                </mxCell>
                <mxCell id="iNH-K4mkTMuiBgrVkIhN-33" value="" style="endArrow=classic;html=1;rounded=0;exitX=0;exitY=0.5;exitDx=0;exitDy=0;entryX=1;entryY=0.5;entryDx=0;entryDy=0;" parent="1" source="iNH-K4mkTMuiBgrVkIhN-14" target="iNH-K4mkTMuiBgrVkIhN-32" edge="1">
                    <mxGeometry width="50" height="50" relative="1" as="geometry">
                        <mxPoint x="470" y="475.87" as="sourcePoint"/>
                        <mxPoint x="530" y="475.87" as="targetPoint"/>
                    </mxGeometry>
                </mxCell>
                <mxCell id="iNH-K4mkTMuiBgrVkIhN-34" value="" style="endArrow=classic;html=1;rounded=0;exitX=0;exitY=0.5;exitDx=0;exitDy=0;entryX=1;entryY=0.5;entryDx=0;entryDy=0;" parent="1" source="iNH-K4mkTMuiBgrVkIhN-32" target="--G_r9Y0AhqQ5Ge0RJmW-1" edge="1">
                    <mxGeometry relative="1" as="geometry">
                        <mxPoint x="350" y="546.87" as="sourcePoint"/>
                        <mxPoint x="310" y="562" as="targetPoint"/>
                        <Array as="points">
                            <mxPoint x="363" y="562"/>
                        </Array>
                    </mxGeometry>
                </mxCell>
                <mxCell id="iNH-K4mkTMuiBgrVkIhN-35" value="Add Constraint(s)" style="edgeLabel;resizable=0;html=1;align=center;verticalAlign=middle;" parent="iNH-K4mkTMuiBgrVkIhN-34" connectable="0" vertex="1">
                    <mxGeometry relative="1" as="geometry">
                        <mxPoint x="5" y="-12" as="offset"/>
                    </mxGeometry>
                </mxCell>
                <mxCell id="iNH-K4mkTMuiBgrVkIhN-36" value="" style="endArrow=classic;html=1;rounded=0;exitX=0.5;exitY=1;exitDx=0;exitDy=0;entryX=0.909;entryY=-0.018;entryDx=0;entryDy=0;entryPerimeter=0;" parent="1" source="iNH-K4mkTMuiBgrVkIhN-32" target="iNH-K4mkTMuiBgrVkIhN-38" edge="1">
                    <mxGeometry relative="1" as="geometry">
                        <mxPoint x="449.71000000000004" y="593.75" as="sourcePoint"/>
                        <mxPoint x="449.71000000000004" y="665.75" as="targetPoint"/>
                    </mxGeometry>
                </mxCell>
                <mxCell id="iNH-K4mkTMuiBgrVkIhN-37" value="Keep Existing Diagram" style="edgeLabel;resizable=0;html=1;align=center;verticalAlign=middle;" parent="iNH-K4mkTMuiBgrVkIhN-36" connectable="0" vertex="1">
                    <mxGeometry relative="1" as="geometry"/>
                </mxCell>
                <mxCell id="iNH-K4mkTMuiBgrVkIhN-38" value="View Final Diagram" style="html=1;whiteSpace=wrap;" parent="1" vertex="1">
                    <mxGeometry x="220" y="680" width="230" height="50" as="geometry"/>
                </mxCell>
                <mxCell id="iNH-K4mkTMuiBgrVkIhN-39" value="" style="rhombus;whiteSpace=wrap;html=1;" parent="1" vertex="1">
                    <mxGeometry x="740" y="541.88" width="45" height="40" as="geometry"/>
                </mxCell>
                <mxCell id="iNH-K4mkTMuiBgrVkIhN-40" value="" style="endArrow=classic;html=1;rounded=0;" parent="1" edge="1">
                    <mxGeometry width="50" height="50" relative="1" as="geometry">
                        <mxPoint x="762.4200000000001" y="475.63" as="sourcePoint"/>
                        <mxPoint x="762.21" y="541.88" as="targetPoint"/>
                    </mxGeometry>
                </mxCell>
                <mxCell id="iNH-K4mkTMuiBgrVkIhN-41" value="" style="endArrow=classic;html=1;rounded=0;exitX=0;exitY=0.5;exitDx=0;exitDy=0;entryX=1;entryY=0.5;entryDx=0;entryDy=0;" parent="1" source="iNH-K4mkTMuiBgrVkIhN-39" edge="1">
                    <mxGeometry width="50" height="50" relative="1" as="geometry">
                        <mxPoint x="680" y="561.58" as="sourcePoint"/>
                        <mxPoint x="640" y="561.58" as="targetPoint"/>
                    </mxGeometry>
                </mxCell>
                <mxCell id="iNH-K4mkTMuiBgrVkIhN-42" value="Edit Diagram" style="edgeLabel;html=1;align=center;verticalAlign=middle;resizable=0;points=[];" parent="iNH-K4mkTMuiBgrVkIhN-41" vertex="1" connectable="0">
                    <mxGeometry x="0.2714" relative="1" as="geometry">
                        <mxPoint x="13" as="offset"/>
                    </mxGeometry>
                </mxCell>
                <mxCell id="iNH-K4mkTMuiBgrVkIhN-43" value="" style="endArrow=classic;html=1;rounded=0;exitX=0.5;exitY=1;exitDx=0;exitDy=0;entryX=1;entryY=0.5;entryDx=0;entryDy=0;" parent="1" source="iNH-K4mkTMuiBgrVkIhN-39" target="iNH-K4mkTMuiBgrVkIhN-38" edge="1">
                    <mxGeometry width="50" height="50" relative="1" as="geometry">
                        <mxPoint x="775" y="637.29" as="sourcePoint"/>
                        <mxPoint x="675" y="636.87" as="targetPoint"/>
                        <Array as="points">
                            <mxPoint x="763" y="705"/>
                        </Array>
                    </mxGeometry>
                </mxCell>
                <mxCell id="iNH-K4mkTMuiBgrVkIhN-44" value="Keep Existing Diagram" style="edgeLabel;html=1;align=center;verticalAlign=middle;resizable=0;points=[];" parent="iNH-K4mkTMuiBgrVkIhN-43" vertex="1" connectable="0">
                    <mxGeometry x="0.2714" relative="1" as="geometry">
                        <mxPoint x="13" as="offset"/>
                    </mxGeometry>
                </mxCell>
                <mxCell id="--G_r9Y0AhqQ5Ge0RJmW-1" value="Choose Constraint(s)" style="html=1;whiteSpace=wrap;" parent="1" vertex="1">
                    <mxGeometry x="190" y="536.87" width="110" height="50" as="geometry"/>
                </mxCell>
                <mxCell id="--G_r9Y0AhqQ5Ge0RJmW-2" value="" style="endArrow=classic;html=1;rounded=0;exitX=0.5;exitY=1;exitDx=0;exitDy=0;" parent="1" edge="1">
                    <mxGeometry width="50" height="50" relative="1" as="geometry">
                        <mxPoint x="254.58" y="586.87" as="sourcePoint"/>
                        <mxPoint x="255" y="680" as="targetPoint"/>
                    </mxGeometry>
                </mxCell>
            </root>
        </mxGraphModel>
    </diagram>
</mxfile>